<svg data-v-0dd9719b="" version="1.0" xmlns="http://www.w3.org/2000/svg" xmlns:xlink="http://www.w3.org/1999/xlink" width="100%" height="100%" viewBox="0 0 340.000000 250.000000" preserveAspectRatio="xMidYMid meet" color-interpolation-filters="sRGB" style="margin: auto;"> <rect data-v-0dd9719b="" x="0" y="0" width="100%" height="100%" fill="#fff" fill-opacity="1" class="background"></rect> <rect data-v-0dd9719b="" x="0" y="0" width="100%" height="100%" fill="url(#watermark)" fill-opacity="1" class="watermarklayer"></rect> <g data-v-0dd9719b="" fill="#333" class="icon-text-wrapper icon-svg-group iconsvg" transform="translate(47.58000183105469,96.30874824523926)"><g class="iconsvg-imagesvg" transform="translate(0,0.45914459228515625)"><g><rect fill="#333" fill-opacity="0" stroke-width="2" x="0" y="0" width="60" height="56.464211100863906" class="image-rect"></rect> <svg x="0" y="0" width="60" height="56.464211100863906" filtersec="colorsb365492967" class="image-svg-svg primary" style="overflow: visible;"><svg xmlns="http://www.w3.org/2000/svg" viewBox="0.28515467047691345 0.27830439805984497 105.97604370117188 99.73069763183594"><path d="M91.2 16a53.15 53.15 0 0 1-1 75.14l-4.65-4.78A46.43 46.43 0 1 0 6.68 52.57a46.06 46.06 0 0 0 13.17 33l-4.78 4.67A53.17 53.17 0 0 1 91.2 16z" fill="#2b3990"></path><path d="M25.37 24.66A39.76 39.76 0 1 1 80.89 81.6l-4.65-4.78a33.09 33.09 0 1 0-46.83-.56l-4.78 4.66a39.79 39.79 0 0 1 .74-56.26z" fill="#2b3990"></path><path d="M34.68 34.21a26.43 26.43 0 1 1 36.9 37.84l-4.66-4.78A19.74 19.74 0 1 0 39 66.94l-4.81 4.66a26.44 26.44 0 0 1 .49-37.39z" fill="#2b3990"></path><path d="M44 43.76A13.09 13.09 0 1 1 62.27 62.5l-4.66-4.77a6.42 6.42 0 1 0-9.08-.11l-4.78 4.66A13.1 13.1 0 0 1 44 43.76z" fill="#2b3990"></path><path fill="#00aeef" d="M56.678 94.65l4.868-4.748 4.741 4.862-4.868 4.747zM38.09 94.553l4.868-4.747 4.74 4.86-4.868 4.748zM57.034 76.076l4.868-4.747 4.748 4.868-4.869 4.748zM66.147 85.413l4.868-4.748 4.74 4.862-4.868 4.747zM75.613 95.14l4.868-4.747 4.748 4.868-4.868 4.748zM48.142 66.954l4.868-4.748 4.74 4.861-4.868 4.748zM38.673 76.19l4.868-4.747 4.741 4.861-4.868 4.748zM52.44 80.57v-.01l-4.88 4.75.01.01 4.74 4.87 4.88-4.75-4.75-4.87zM29.207 85.43l4.869-4.747 4.74 4.861-4.868 4.748zM19.246 95.136l4.868-4.748 4.74 4.862-4.868 4.747z"></path></svg></svg> <!----></g></g> <g transform="translate(67,0)"><g data-gra="path-name" fill-rule="" class="tp-name iconsvg-namesvg" transform="translate(0,0)"><g transform="scale(1)"><g><path d="M19.62-13.59L19.62-13.59 24.88-13.18Q24.48-6.75 22.95-4.32L22.95-4.32Q37.57-3.73 41.4-0.18L41.4-0.18Q43.16 1.44 41.94 2.83L41.94 2.83Q40.86 4.05 38.84 3.73L38.84 3.73Q37.89 3.6 37.08 3.06L37.08 3.06Q31.09-1.35 22.45-3.65L22.45-3.65Q20.38-0.99 15.57 0.85L15.57 0.85Q10.8 2.75 1.8 4.05L1.8 4.05 1.48 3.42Q4.41 2.75 6.79 1.98L6.79 1.98Q9.18 1.26 10.93 0.49L10.93 0.49Q12.73-0.22 14.08-1.13L14.08-1.13Q15.43-2.07 16.34-2.83L16.34-2.83Q17.23-3.65 17.82-4.77L17.82-4.77Q18.45-5.89 18.77-6.75L18.77-6.75Q19.13-7.6 19.3-8.91 19.48-10.21 19.53-11.16 19.57-12.11 19.62-13.59ZM32.53-4.32L32.53-4.32 31.63-4.32 31.63-15.16 13-15.16 13-4.32Q13-3.92 11.47-3.28L11.47-3.28Q9.95-2.7 8.41-2.7L8.41-2.7 7.69-2.7 7.69-18.63 13.37-16.43 36.85-16.43 36.85-5.76Q36.81-5.44 35.28-4.86L35.28-4.86Q33.75-4.32 32.53-4.32ZM12.11-31.68L12.11-26.68 19.57-26.68 19.57-31.68 12.11-31.68ZM32.22-26.68L32.22-31.68 24.79-31.68 24.79-26.68 32.22-26.68ZM24.79-21.2L43.96-21.2 43.96-19.89 1.62-19.89 1.3-21.2 19.57-21.2 19.57-25.38 12.11-25.38 12.11-24.39Q12.11-24.16 11.43-23.8L11.43-23.8Q10.8-23.49 9.72-23.22L9.72-23.22Q8.69-22.95 7.74-22.95L7.74-22.95 7.06-22.95 7.06-35.05 12.46-32.94 19.57-32.94 19.57-38.2 24.79-37.66 24.79-32.94 37.35-32.94 37.35-24.7Q37.3-24.39 35.77-23.85L35.77-23.85Q34.29-23.31 33.12-23.31L33.12-23.31 32.22-23.31 32.22-25.38 24.79-25.38 24.79-21.2ZM54.23-19.53L54.23-37.57 59.27-36.9Q59.27-36.9 59.27-19.48L59.27-19.48Q59.22-15.57 58.63-12.29L58.63-12.29Q58.05-9.04 56.66-5.89L56.66-5.89Q55.3-2.75 52.74-0.18L52.74-0.18Q50.22 2.38 46.58 4.18L46.58 4.18 46.22 3.73Q50.76-0.45 52.47-6.17L52.47-6.17Q54.23-11.88 54.23-19.53L54.23-19.53ZM80.55 4.09L80.55-37.57 85.77-36.85 85.77 2.29Q85.77 2.79 84.33 3.42L84.33 3.42Q82.94 4.09 81.54 4.09L81.54 4.09 80.55 4.09ZM67.14 3.28L67.14-36.81 72.22-36.13 72.22 1.57Q72.22 2.02 70.83 2.65L70.83 2.65Q69.48 3.28 68.13 3.28L68.13 3.28 67.14 3.28ZM59.76-25.06L60.3-25.24Q65.43-21.96 66.06-17.91L66.06-17.91Q66.42-15.39 65.03-14.26L65.03-14.26Q63.59-13.09 62.01-14.63L62.01-14.63Q61.92-14.71 61.83-14.8L61.83-14.8Q62.1-19.17 59.76-25.06L59.76-25.06ZM72.77-25.11L73.31-25.33Q78.62-22.27 79.42-18.31L79.42-18.31Q79.92-15.75 78.48-14.49L78.48-14.49Q77.13-13.28 75.56-14.63L75.56-14.63Q75.33-14.8 75.15-14.98L75.15-14.98Q75.38-19.57 72.77-25.11L72.77-25.11ZM46.84-25.88L47.38-26.05Q52.78-22.45 53.5-17.95L53.5-17.95Q54-15.16 52.52-13.77L52.52-13.77Q51.08-12.51 49.41-13.99L49.41-13.99Q49.23-14.13 49.05-14.31L49.05-14.31Q49.37-19.53 46.84-25.88L46.84-25.88ZM104.81-32.71L97.06-32.71 97.06-10.98Q97.06-10.8 96.66-10.53 96.25-10.26 95.4-10.04 94.55-9.81 93.56-9.81L93.56-9.81 92.83-9.81 92.83-35.82 97.56-33.98 109.17-33.98 109.17-11.83Q109.17-11.7 108.72-11.43L108.72-11.43Q108.31-11.21 107.41-10.93L107.41-10.93Q106.52-10.71 105.53-10.71L105.53-10.71 104.81-10.71 104.81-32.71ZM99.14-29.47L99.14-29.47 102.91-28.26Q102.91-26.41 102.87-23.36 102.83-20.29 102.78-19.26 102.73-18.22 102.64-16.11L102.64-16.11Q102.56-14.04 102.38-12.6L102.38-12.6Q102.24-11.16 102.02-9.81L102.02-9.81Q107.78-7.33 109.08-3.55L109.08-3.55Q109.94-1.08 108.63 0.32L108.63 0.32Q107.37 1.67 105.57 0.49L105.57 0.49Q105.39 0.36 105.16 0.18L105.16 0.18Q104.63-3.96 101.79-8.59L101.79-8.59Q100.84-4.09 98.5-1.08L98.5-1.08Q96.21 1.93 91.75 4L91.75 4 91.22 3.28Q96.66-0.67 97.88-6.79L97.88-6.79Q99.14-12.96 99.14-27.36L99.14-27.36Q99.14-28.75 99.14-29.47ZM119.3-17.41L119.3-17.41 119.88-17.59Q124.88-13.95 125.37-9.76L125.37-9.76Q125.64-7.2 124.2-6.17L124.2-6.17Q122.81-5.17 121.32-6.79L121.32-6.79Q121.41-8.41 121.19-10.04L121.19-10.04Q116.55-7.83 113.53-6.57L113.53-6.57Q113.04-5.76 112.45-5.49L112.45-5.49 110.03-10.71Q110.97-10.98 111.33-11.29L111.33-11.29Q112.72-13.28 114.25-17.95L114.25-17.95Q115.83-22.63 116.37-25.96L116.37-25.96 120.96-23.4Q117.81-16.2 113.22-10.8L113.22-10.8Q117-10.98 121-11.34L121-11.34Q120.42-14.45 119.3-17.41ZM116.78-29.83L132.25-29.83 132.25-27.72Q131.94-13.54 131.13-6.97L131.13-6.97Q130.37-0.45 128.52 1.48L128.52 1.48Q126.41 3.87 122.31 3.87L122.31 3.87Q122.31 1.26 121.41 0.4L121.41 0.4Q120.28-0.85 117.05-1.44L117.05-1.44 117.05-2.11Q121.5-1.71 123.03-1.71L123.03-1.71Q124.11-1.71 124.78-2.34L124.78-2.34Q126-3.46 126.59-9.81L126.59-9.81Q127.17-16.2 127.44-28.53L127.44-28.53 116.23-28.53Q113.53-22.59 110.03-18.95L110.03-18.95 109.39-19.26Q112.5-27.27 113.76-38.25L113.76-38.25 118.89-36.63Q117.81-32.17 116.78-29.83L116.78-29.83ZM142.65-31.18L142.65-11.29 146.61-11.29 146.61-31.18 142.65-31.18ZM142.83-32.45L151.47-32.45 151.47-7.33Q151.43-6.97 149.99-6.34L149.99-6.34Q148.59-5.71 147.38-5.71L147.38-5.71 146.61-5.71 146.61-10.04 142.65-10.04 142.65-5.13Q142.65-4.68 141.34-4.05L141.34-4.05Q140.09-3.46 138.65-3.46L138.65-3.46 137.88-3.46 137.88-34.56 142.83-32.45ZM163.17-18.36L163.17-32.71 159.48-32.71 159.48-18.36 163.17-18.36ZM171.41-18.36L171.41-32.71 167.67-32.71 167.67-18.36 171.41-18.36ZM176.44-10.62L176.94-10.62 177.07-2.79Q179.14-1.98 179.14-0.67L179.14-0.67Q179.14 0.58 178.16 1.26L178.16 1.26Q177.16 1.98 174.6 2.34 172.03 2.7 167.4 2.7L167.4 2.7 161.55 2.7Q157.5 2.7 155.97 1.62L155.97 1.62Q154.49 0.58 154.49-2.56L154.49-2.56 154.49-36.13 160.06-34.02 176.4-34.02 176.4-14.54Q176.35-14.35 175.68-14.04L175.68-14.04Q175.05-13.72 174.01-13.46L174.01-13.46Q173.03-13.18 172.22-13.18L172.22-13.18 171.41-13.18 171.41-17.1 159.48-17.1 159.48-3.87Q159.48-2.92 160.06-2.56 160.65-2.21 162.27-2.21L162.27-2.21 167.81-2.21Q171.68-2.21 172.57-2.34L172.57-2.34Q173.61-2.38 174.06-3.1L174.06-3.1Q174.82-4.54 176.44-10.62L176.44-10.62Z" transform="translate(-1.2999999523162842, 38.25)"></path></g> <!----> <!----> <!----> <!----> <!----> <!----> <!----></g></g> <g data-gra="path-slogan" fill-rule="" class="tp-slogan iconsvg-slogansvg" fill="#333" transform="translate(5,48.43000030517578)"><rect x="0" height="1" y="3.9750003814697266" width="21.05999755859375"></rect> <rect height="1" y="3.9750003814697266" width="21.05999755859375" x="146.77999877929688"></rect> <g transform="translate(24.05999755859375,0)"><g transform="scale(1)"><path d="M4.13-7.64L2.06-7.64L2.06-4.97L4.13-4.97Q5.95-4.92 5.91-6.38L5.91-6.38Q5.91-7.64 4.13-7.64L4.13-7.64ZM4.59 0L0.89 0L0.89-8.58L4.69-8.58Q6.98-8.48 7.08-6.42L7.08-6.42Q7.08-5.16 5.95-4.64L5.95-4.64Q7.55-4.08 7.55-2.53L7.55-2.53Q7.41-0.09 4.59 0L4.59 0ZM4.31-3.98L2.06-3.98L2.06-0.98L4.55-0.98Q6.33-1.03 6.38-2.53L6.38-2.53Q6.38-3.98 4.31-3.98L4.31-3.98ZM14.53-3.19L14.53-8.58L15.70-8.58L15.70-3.05Q15.56 0.05 12.19 0.14L12.19 0.14Q9.05 0.05 8.91-2.86L8.91-2.86L8.91-8.58L10.08-8.58L10.08-3.19Q10.13-0.84 12.23-0.80L12.23-0.80Q14.53-0.84 14.53-3.19L14.53-3.19ZM24.42-8.58L21.19-3.47L21.19 0L20.02 0L20.02-3.47L16.78-8.58L18.14-8.58L20.58-4.45L23.06-8.58L24.42-8.58ZM34.31-3.89L30.09-3.89L30.09 0L28.92 0L28.92-8.58L34.88-8.58L34.88-7.59L30.09-7.59L30.09-4.92L34.31-4.92L34.31-3.89ZM40.17-3.70L37.36-3.70L37.36 0L36.19 0L36.19-8.58L40.17-8.58Q43.03-8.58 43.03-6.28L43.03-6.28Q43.03-4.88 41.81-4.22L41.81-4.22Q42.84-3.94 42.84-2.58L42.84-2.58L42.94-1.03Q42.89-0.38 43.36-0.19L43.36-0.19L43.36 0L41.91 0Q41.77-0.61 41.72-2.16L41.72-2.16Q41.77-3.70 40.17-3.70L40.17-3.70ZM40.27-7.64L37.36-7.64L37.36-4.69L40.08-4.69Q41.81-4.69 41.81-6.19L41.81-6.19Q41.81-7.64 40.27-7.64L40.27-7.64ZM51.47-4.27L51.47-4.27Q51.28-7.64 48.47-7.83L48.47-7.83Q45.61-7.69 45.47-4.27L45.47-4.27Q45.61-0.94 48.47-0.80L48.47-0.80Q51.28-0.98 51.47-4.27ZM52.64-4.27L52.64-4.27Q52.36 0 48.47 0.14L48.47 0.14Q44.53 0 44.25-4.27L44.25-4.27Q44.48-8.72 48.47-8.81L48.47-8.81Q52.36-8.67 52.64-4.27ZM62.25-8.58L62.25 0L61.13 0L61.13-5.06Q61.13-5.77 61.13-7.22L61.13-7.22L58.69 0L57.52 0L55.13-7.22L55.08-7.22Q55.08-6.70 55.13-5.67L55.13-5.67Q55.13-5.16 55.13-5.06L55.13-5.06L55.13 0L53.95 0L53.95-8.58L55.64-8.58L58.13-1.31L60.56-8.58L62.25-8.58ZM73.69-3.61L71.06-3.61L71.06-4.59L74.81-4.59L74.81 0L74.06 0L73.78-1.08Q72.80 0.09 70.97 0.14L70.97 0.14Q69.23 0.14 68.30-0.75L68.30-0.75Q66.89-2.06 66.94-4.36L66.94-4.36Q67.27-8.63 71.02-8.81L71.02-8.81Q74.20-8.63 74.67-6L74.67-6L73.55-6Q73.08-7.78 70.97-7.83L70.97-7.83Q68.30-7.64 68.16-4.31L68.16-4.31Q68.16-0.75 71.02-0.75L71.02-0.75Q72.05-0.75 72.80-1.31L72.80-1.31Q73.73-2.06 73.69-3.61L73.69-3.61ZM82.27-3.19L82.27-8.58L83.44-8.58L83.44-3.05Q83.30 0.05 79.92 0.14L79.92 0.14Q76.78 0.05 76.64-2.86L76.64-2.86L76.64-8.58L77.81-8.58L77.81-3.19Q77.86-0.84 79.97-0.80L79.97-0.80Q82.27-0.84 82.27-3.19L82.27-3.19ZM85.41-8.58L86.58-8.58L86.58 0L85.41 0L85.41-8.58ZM89.39-1.03L94.69-1.03L94.69 0L87.94 0L87.94-0.94L93.19-7.59L88.31-7.59L88.31-8.58L94.69-8.58L94.69-7.59L89.39-1.03ZM96.98-5.06L101.48-5.06L101.48-8.58L102.66-8.58L102.66 0L101.48 0L101.48-3.98L96.98-3.98L96.98 0L95.81 0L95.81-8.58L96.98-8.58L96.98-5.06ZM111.23-4.27L111.23-4.27Q111.05-7.64 108.23-7.83L108.23-7.83Q105.38-7.69 105.23-4.27L105.23-4.27Q105.38-0.94 108.23-0.80L108.23-0.80Q111.05-0.98 111.23-4.27ZM112.41-4.27L112.41-4.27Q112.13 0 108.23 0.14L108.23 0.14Q104.30 0 104.02-4.27L104.02-4.27Q104.25-8.72 108.23-8.81L108.23-8.81Q112.13-8.67 112.41-4.27ZM119.44-3.19L119.44-8.58L120.61-8.58L120.61-3.05Q120.47 0.05 117.09 0.14L117.09 0.14Q113.95 0.05 113.81-2.86L113.81-2.86L113.81-8.58L114.98-8.58L114.98-3.19Q115.03-0.84 117.14-0.80L117.14-0.80Q119.44-0.84 119.44-3.19L119.44-3.19Z" transform="translate(-0.890625, 8.8125)"></path></g></g></g></g></g><defs v-gra="od"></defs></svg>